<?xml version="1.0" standalone="no"?>
<!DOCTYPE svg PUBLIC "-//W3C//DTD SVG 20010904//EN"
 "http://www.w3.org/TR/2001/REC-SVG-20010904/DTD/svg10.dtd">
<svg version="1.0" xmlns="http://www.w3.org/2000/svg"
 width="700.000000pt" height="700.000000pt" viewBox="0 0 700.000000 700.000000"
 preserveAspectRatio="xMidYMid meet">
<metadata>
Created by potrace 1.14, written by Peter Selinger 2001-2017
</metadata>
<g transform="translate(0.000000,700.000000) scale(0.100000,-0.100000)"
fill="#000000" stroke="none">
<path d="M1609 6646 c-2 -2 -29 -7 -59 -11 -75 -9 -191 -49 -270 -92 -221
-121 -358 -325 -396 -588 -10 -69 -11 -2187 -1 -2255 19 -134 56 -215 137
-304 87 -95 204 -162 455 -261 66 -26 145 -59 175 -73 51 -23 267 -116 462
-200 l88 -37 0 -55 c4 -406 0 -1555 -5 -1570 -7 -23 9 -21 -253 -22 -121 0
-177 3 -185 11 -9 9 -12 135 -13 479 -1 257 -2 474 -3 482 -1 13 -54 15 -433
15 l-433 0 1 -530 c0 -571 3 -616 35 -721 44 -144 103 -240 212 -344 101 -98
279 -184 428 -207 70 -10 779 -11 844 0 74 13 216 62 277 96 183 103 315 276
370 484 22 81 22 92 25 1072 4 1089 4 1088 -57 1211 -36 74 -129 171 -218 228
-37 23 -139 73 -227 111 -88 37 -178 76 -200 86 -22 10 -76 34 -120 52 -168
72 -363 156 -406 175 -24 11 -54 23 -66 26 -12 4 -24 15 -27 24 -2 9 -3 434
-3 944 2 702 5 930 14 939 13 13 381 17 421 5 17 -6 22 -15 23 -44 0 -20 0
-297 1 -615 l0 -577 22 -5 c11 -2 64 -7 116 -10 52 -4 115 -8 140 -10 25 -2
77 -6 115 -10 39 -3 99 -8 135 -11 36 -2 83 -7 105 -9 22 -2 84 -7 138 -11
l98 -6 -4 733 c-2 404 -7 750 -11 769 -15 71 -65 202 -97 257 -48 81 -180 211
-264 260 -38 22 -104 53 -145 67 -140 49 -197 54 -581 55 -196 0 -358 -1 -360
-3z"/>
<path d="M4669 6646 c-2 -2 -29 -7 -59 -11 -70 -8 -218 -57 -278 -92 -144 -83
-268 -216 -330 -355 -20 -46 -44 -122 -58 -188 -5 -19 -9 -541 -11 -1160 -3
-1204 -3 -1196 47 -1304 62 -138 200 -254 404 -341 58 -25 107 -45 110 -45 5
0 193 -78 251 -105 29 -13 193 -84 245 -106 14 -6 79 -34 145 -63 l120 -52 0
-808 c1 -585 -2 -812 -11 -824 -9 -13 -42 -15 -219 -14 -114 0 -212 5 -217 10
-5 5 -10 219 -11 493 l-2 484 -430 0 -430 0 -2 -540 c-2 -595 2 -643 58 -784
84 -210 262 -374 484 -445 122 -39 190 -45 555 -45 308 1 367 3 445 19 176 37
319 113 431 229 117 122 184 264 210 446 10 69 11 1915 1 1995 -16 130 -56
219 -140 307 -74 78 -165 135 -337 209 -85 36 -168 72 -185 79 -16 7 -167 72
-335 145 -168 72 -309 135 -314 140 -10 10 -12 1846 -2 1878 8 25 -8 24 244
24 127 0 187 -3 195 -11 9 -9 12 -172 14 -619 1 -334 2 -609 2 -612 1 -3 9 -6
19 -6 9 0 60 -4 112 -8 90 -6 119 -9 250 -20 30 -3 93 -8 140 -11 47 -3 99 -7
115 -10 17 -2 75 -7 130 -11 l100 -6 -1 699 c-1 670 -3 759 -25 848 -67 272
-283 488 -560 560 -35 9 -73 20 -84 23 -22 6 -780 14 -786 8z"/>
</g>
</svg>
