<svg xmlns="http://www.w3.org/2000/svg" width="16" height="16" viewBox="0 0 16 16" fill="none">
<path d="M3.83429 4.33317L12.8345 4.33317C12.9257 4.33345 13.015 4.35807 13.0929 4.40437C13.1708 4.45068 13.2343 4.51691 13.2767 4.59595C13.319 4.675 13.3385 4.76385 13.3331 4.85295C13.3277 4.94205 13.2976 5.02802 13.2461 5.10161L8.74592 11.4685C8.55942 11.7325 8.11041 11.7325 7.9234 11.4685L3.42327 5.10161C3.37118 5.02817 3.34064 4.94216 3.33495 4.85291C3.32927 4.76366 3.34866 4.6746 3.39103 4.59539C3.4334 4.51618 3.49711 4.44986 3.57526 4.40363C3.65341 4.3574 3.74299 4.33303 3.83429 4.33317Z" fill="currentColor"/>
</svg>
