<svg width="140" height="48" viewBox="0 0 140 48" fill="none" xmlns="http://www.w3.org/2000/svg">
<path d="M18.6594 23.86C18.6594 27.3 18.6194 27.52 18.1994 28C17.8194 28.34 17.4394 28.46 16.6794 28.46L15.6594 28.48L15.5994 23.94L15.5594 19.4H16.5994C17.2994 19.4 17.7994 19.54 18.1394 19.82C18.6194 20.24 18.6594 20.32 18.6594 23.86ZM47.1994 15V33C47.1994 35.22 45.4194 37 43.1994 37H11.1994C8.97943 37 7.19943 35.22 7.19943 33V15C7.19943 12.78 8.97943 11 11.1994 11H43.1994C45.4194 11 47.1994 12.78 47.1994 15ZM21.0594 23.46C20.9994 19.78 20.9594 19.48 20.4794 18.68C19.6794 17.32 18.7794 17 15.7594 17H13.1994V31H15.6194C18.2794 31 19.3994 30.66 20.1994 29.58C21.0194 28.52 21.1994 27.62 21.0594 23.46ZM29.4394 17H26.4794C23.4994 17 23.4794 17 23.0594 17.56C22.6394 18.12 22.5994 18.42 22.5994 24V29.92L23.1394 30.46C23.6394 31 23.7594 31 26.5594 31H29.4394V28.62L27.2594 28.54L25.0594 28.48V25.2L26.4194 25.14L27.7394 25.06V22.68H24.9594V19.4H29.4394V17ZM41.1994 17.12C41.1994 17 40.5994 17 39.8794 17L38.5194 17.12L37.3394 21.82C36.5794 24.78 36.0994 26.36 35.9994 26.08C35.8394 25.54 33.7194 17.2 33.7194 17.1C33.7194 17 33.0994 17 32.3594 17H30.9794L31.7994 20.1C32.1994 21.84 32.9794 24.66 33.4194 26.4C34.0994 29.1 34.3394 29.7 34.9194 30.28C35.3194 30.72 35.8194 31 36.1394 31C36.7994 31 37.6594 30.32 37.9394 29.54C38.1994 29 41.1994 17.38 41.1994 17.12Z" fill="#699BF7"/>
<path d="M57.1994 29.6534V15.108H61.1483V26.4716H67.029V29.6534H57.1994Z" fill="#699BF7"/>
<path d="M74.7377 29.8523C73.554 29.8523 72.5407 29.6179 71.6979 29.1492C70.8551 28.6757 70.2088 28.0175 69.759 27.1747C69.3092 26.3272 69.0843 25.3447 69.0843 24.2273C69.0843 23.1099 69.3092 22.1297 69.759 21.2869C70.2088 20.4394 70.8551 19.7813 71.6979 19.3125C72.5407 18.839 73.554 18.6023 74.7377 18.6023C75.9214 18.6023 76.9347 18.839 77.7775 19.3125C78.6203 19.7813 79.2666 20.4394 79.7164 21.2869C80.1662 22.1297 80.3911 23.1099 80.3911 24.2273C80.3911 25.3447 80.1662 26.3272 79.7164 27.1747C79.2666 28.0175 78.6203 28.6757 77.7775 29.1492C76.9347 29.6179 75.9214 29.8523 74.7377 29.8523ZM74.7661 26.9545C75.0976 26.9545 75.384 26.8433 75.6255 26.6207C75.867 26.3982 76.054 26.081 76.1866 25.669C76.3192 25.2571 76.3854 24.767 76.3854 24.1989C76.3854 23.6259 76.3192 23.1359 76.1866 22.7287C76.054 22.3168 75.867 21.9995 75.6255 21.777C75.384 21.5545 75.0976 21.4432 74.7661 21.4432C74.4157 21.4432 74.1151 21.5545 73.8641 21.777C73.6132 21.9995 73.4214 22.3168 73.2889 22.7287C73.1563 23.1359 73.09 23.6259 73.09 24.1989C73.09 24.767 73.1563 25.2571 73.2889 25.669C73.4214 26.081 73.6132 26.3982 73.8641 26.6207C74.1151 26.8433 74.4157 26.9545 74.7661 26.9545Z" fill="#699BF7"/>
<path d="M88.0377 33.9716C86.944 33.9716 86.0065 33.8153 85.2252 33.5028C84.4487 33.1951 83.845 32.7689 83.4141 32.2244C82.988 31.6847 82.7489 31.0644 82.6968 30.3636H86.4752C86.5131 30.5956 86.6078 30.7827 86.7593 30.9247C86.9108 31.0668 87.1049 31.1686 87.3417 31.2301C87.5832 31.2964 87.8531 31.3295 88.1514 31.3295C88.658 31.3295 89.077 31.2064 89.4085 30.9602C89.7446 30.714 89.9127 30.2689 89.9127 29.625V27.7784H89.7991C89.657 28.1477 89.4392 28.4626 89.1457 28.723C88.8521 28.9787 88.4994 29.1752 88.0874 29.3125C87.6755 29.4451 87.2233 29.5114 86.7309 29.5114C85.9544 29.5114 85.2394 29.3314 84.586 28.9716C83.9373 28.6117 83.4165 28.0412 83.0235 27.2599C82.6353 26.4787 82.4411 25.4583 82.4411 24.1989C82.4411 22.8826 82.6447 21.8125 83.0519 20.9886C83.4638 20.1648 83.9942 19.5611 84.6428 19.1776C85.2962 18.794 85.9828 18.6023 86.7025 18.6023C87.2423 18.6023 87.7157 18.697 88.1229 18.8864C88.5301 19.071 88.871 19.3196 89.1457 19.6321C89.4203 19.9399 89.6286 20.2784 89.7707 20.6477H89.8559V18.7443H93.7764V29.625C93.7764 30.5483 93.5372 31.3319 93.059 31.9759C92.5855 32.6245 91.9179 33.1193 91.0562 33.4602C90.1944 33.8011 89.1883 33.9716 88.0377 33.9716ZM88.1798 26.7273C88.5396 26.7273 88.8474 26.6278 89.1031 26.429C89.3635 26.2254 89.5623 25.9366 89.6996 25.5625C89.8417 25.1837 89.9127 24.7292 89.9127 24.1989C89.9127 23.6591 89.8417 23.1974 89.6996 22.8139C89.5623 22.4257 89.3635 22.1297 89.1031 21.9261C88.8474 21.7178 88.5396 21.6136 88.1798 21.6136C87.8199 21.6136 87.5121 21.7178 87.2565 21.9261C87.0055 22.1297 86.8114 22.4257 86.6741 22.8139C86.5415 23.1974 86.4752 23.6591 86.4752 24.1989C86.4752 24.7386 86.5415 25.1979 86.6741 25.5767C86.8114 25.9508 87.0055 26.2372 87.2565 26.4361C87.5121 26.6302 87.8199 26.7273 88.1798 26.7273Z" fill="#699BF7"/>
<path d="M101.826 29.8523C100.642 29.8523 99.629 29.6179 98.7862 29.1492C97.9434 28.6757 97.2971 28.0175 96.8473 27.1747C96.3975 26.3272 96.1726 25.3447 96.1726 24.2273C96.1726 23.1099 96.3975 22.1297 96.8473 21.2869C97.2971 20.4394 97.9434 19.7813 98.7862 19.3125C99.629 18.839 100.642 18.6023 101.826 18.6023C103.01 18.6023 104.023 18.839 104.866 19.3125C105.709 19.7813 106.355 20.4394 106.805 21.2869C107.255 22.1297 107.479 23.1099 107.479 24.2273C107.479 25.3447 107.255 26.3272 106.805 27.1747C106.355 28.0175 105.709 28.6757 104.866 29.1492C104.023 29.6179 103.01 29.8523 101.826 29.8523ZM101.854 26.9545C102.186 26.9545 102.472 26.8433 102.714 26.6207C102.955 26.3982 103.142 26.081 103.275 25.669C103.407 25.2571 103.474 24.767 103.474 24.1989C103.474 23.6259 103.407 23.1359 103.275 22.7287C103.142 22.3168 102.955 21.9995 102.714 21.777C102.472 21.5545 102.186 21.4432 101.854 21.4432C101.504 21.4432 101.203 21.5545 100.952 21.777C100.701 21.9995 100.51 22.3168 100.377 22.7287C100.245 23.1359 100.178 23.6259 100.178 24.1989C100.178 24.767 100.245 25.2571 100.377 25.669C100.51 26.081 100.701 26.3982 100.952 26.6207C101.203 26.8433 101.504 26.9545 101.854 26.9545Z" fill="#699BF7"/>
</svg>
